<svg height="2300" viewBox="0 0 2300 2300" width="2300" xmlns="http://www.w3.org/2000/svg" xmlns:xlink="http://www.w3.org/1999/xlink"><linearGradient id="a"><stop offset=".0056" stop-color="#c2d0db"/><stop offset="1" stop-color="#8a99ad"/></linearGradient><linearGradient id="b" gradientUnits="userSpaceOnUse" x1="1468.1759" x2="504.1516" xlink:href="#a" y1="758.4114" y2="985.6244"/><linearGradient id="c" gradientUnits="userSpaceOnUse" x1="1532.8799" x2="-429.8064" y1="357.2393" y2="2150.866"><stop offset=".2012" stop-color="#fff0f7"/><stop offset=".9944" stop-color="#c4b2bb"/></linearGradient><linearGradient id="d" gradientUnits="userSpaceOnUse" x1="1248.649" x2="270.1151" y1="899.4597" y2="1727.1923"><stop offset=".0615" stop-color="#e2d7dd"/><stop offset=".9944" stop-color="#877f82" stop-opacity=".6"/></linearGradient><linearGradient id="e" gradientUnits="userSpaceOnUse" x1="1520.1742" x2="1450.9783" xlink:href="#a" y1="1189.9053" y2="1191.7119"/><linearGradient id="f" gradientUnits="userSpaceOnUse" x1="1967.5638" x2="863.1814" y1="775.5813" y2="772.5618"><stop offset=".0615" stop-color="#fff4db"/><stop offset=".9944" stop-color="#e8d5ae"/></linearGradient><linearGradient id="g" gradientUnits="userSpaceOnUse" x1="2086.0039" x2="952.6269" y1="388.3637" y2="388.8406"><stop offset=".0056" stop-color="#cfade9"/><stop offset=".9441" stop-color="#8170d6"/></linearGradient><linearGradient id="h" gradientTransform="matrix(-1 0 0 1 5060.7378 0)" gradientUnits="userSpaceOnUse" x1="2906.978" x2="3929.262" y1="723.9229" y2="748.0696"><stop offset="0" stop-color="#eef5ff"/><stop offset="1" stop-color="#66a4ed"/></linearGradient><linearGradient id="i"><stop offset="0" stop-color="#f9673a"/><stop offset=".9944" stop-color="#ff966c"/></linearGradient><linearGradient id="j" gradientUnits="userSpaceOnUse" x1="1391.9691" x2="2409.1182" xlink:href="#i" y1="1082.479" y2="1082.479"/><linearGradient id="k" gradientUnits="userSpaceOnUse" x1="1392.2689" x2="1023.4828" y1="1083.3088" y2="1081.3282"><stop offset=".4001" stop-color="#9ac460"/><stop offset=".9944" stop-color="#76964a"/></linearGradient><linearGradient id="l" gradientTransform="matrix(-1 0 0 1 4378.7632 0)" gradientUnits="userSpaceOnUse" x1="3359.751" x2="3674.5552" y1="1082.6135" y2="1088.9259"><stop offset="0" stop-color="#e2d7dd" stop-opacity=".76"/><stop offset=".9944" stop-color="#877f82" stop-opacity=".6"/></linearGradient><linearGradient id="m" gradientUnits="userSpaceOnUse" x1="173.9412" x2="744.7415" xlink:href="#i" y1="1340.7894" y2="800.51"/><linearGradient id="n" gradientUnits="userSpaceOnUse" x1="1159.2987" x2="1112.6604" xlink:href="#a" y1="1487.4045" y2="1521.3594"/><linearGradient id="o"><stop offset="0" stop-color="#e06eb1"/><stop offset=".9944" stop-color="#ffccde"/></linearGradient><linearGradient id="p" gradientUnits="userSpaceOnUse" x1="1008.9471" x2="1850.1445" xlink:href="#o" y1="1941.2018" y2="1459.7201"/><linearGradient id="q" gradientUnits="userSpaceOnUse" x1="1082.2827" x2="1943.075" xlink:href="#o" y1="1680.3359" y2="1533.3705"/><linearGradient id="r" gradientUnits="userSpaceOnUse" x1="1664.6031" x2="1324.2739" y1="1430.9106" y2="1701.5935"><stop offset="0" stop-color="#fff9ee"/><stop offset=".9944" stop-color="#fcd8a4"/></linearGradient><linearGradient id="s" gradientUnits="userSpaceOnUse" x1="1372.7671" x2="1526.0466" xlink:href="#o" y1="1821.0172" y2="1678.3461"/><linearGradient id="t" gradientUnits="userSpaceOnUse" x1="1535.7479" x2="1256.9515" y1="1630.9376" y2="1937.4392"><stop offset=".095" stop-color="#fff200"/><stop offset=".7515" stop-color="#ebac00"/><stop offset=".9944" stop-color="#b38509"/></linearGradient><path d="m1459.514 234.508v1285.327c0 16.703-13.535 30.259-30.277 30.259h-929.884c-16.713 0-30.278-13.556-30.278-30.259v-1285.327c0-16.703 13.564-30.259 30.278-30.259h929.883c16.744-0 30.278 13.556 30.278 30.259z" fill="url(#b)"/><path d="m1409.077 244.009h-355.439v24.577c0 8.361-6.778 15.139-15.139 15.139h-156.841c-8.361 0-15.139-6.778-15.139-15.139v-24.577h-348.179c-11.046 0-20 8.954-20 20v1225.133c0 11.705 9.489 21.194 21.194 21.194h889.543c11.705 0 21.194-9.489 21.194-21.194v-1223.939c0-11.705-9.489-21.194-21.194-21.194z" fill="url(#c)"/><path d="m1430.271 412.267h-480.328c-24.222 0-43.871 19.639-43.871 43.814v730.443c0 24.215 19.643 43.845 43.873 43.845h129.67c-4.84 7.049-7.683 15.573-7.683 24.762v255.204h337.704c11.403 0 20.653-9.227 20.674-20.623z" fill="url(#d)"/><path d="m1430.308 1153.249h28.775v77.255h-28.775z" fill="url(#e)" opacity=".6"/><path d="m2069.299 435.193v681.062c0 24.201-19.652 43.838-43.865 43.838h-1016.792c-24.214 0-43.865-19.637-43.865-43.838v-681.062c0-24.199 39.3-46.599 63.513-46.599h992.759c24.214 0 48.25 22.4 48.25 46.599z" fill="url(#f)"/><path d="m2069.299 385.833v49.36h-1104.523v-49.36c0-24.199 19.651-43.838 43.865-43.838h1016.792c24.214 0 43.866 19.639 43.866 43.838z" fill="url(#g)"/><ellipse cx="1866.172" cy="388.594" fill="#008080" rx="22.341" ry="22.327"/><ellipse cx="1941.262" cy="388.594" fill="#fcca00" rx="22.341" ry="22.327"/><ellipse cx="2011.513" cy="388.594" fill="#ff6260" rx="22.341" ry="22.327"/><path d="m1022.221 1011.897h1001.633c5.5 0 10-4.5 10-10v-526.152c0-5.5-4.5-10-10-10h-1001.633c-5.5 0-10 4.5-10 10v526.152c0 5.5 4.5 10 10 10z" fill="url(#h)"/><path d="m2028.854 1104.452h-570.529l-8.241-9.263-427.851-.507c-2.761 0-7.447-25.304-4.686-25.304l433.57-1.814 7.208-7.057h570.529c2.761 0 5 2.239 5 5v33.945c0 2.761-2.238 5-5 5z" fill="url(#j)"/><path d="m1458.325 1104.452h-441.104c-2.761 0-5-2.239-5-5v-33.945c0-2.761 2.239-5 5-5h441.104z" fill="url(#k)"/><path d="m1157.772 921.771c-.39 0-.786-.046-1.182-.142-2.684-.651-4.332-3.354-3.681-6.037 17.064-70.378 38.64-142.085 97.399-177.883 7.897-4.811 16.485-8.937 25.526-12.262 61.173-22.497 129.719 9.077 156.052 71.881 5.014 11.958 11.55 22.606 19.426 31.647 22.847 26.226 66.425 41.913 99.804 22.769 20.659-11.849 33.454-34.574 42.292-53.047 9.076-18.97 16.871-39.093 24.409-58.554 13.366-34.508 27.188-70.192 48.775-101.244 22.904-32.948 57.732-59.609 95.554-73.149 40.936-14.654 81.977-12.9 115.564 4.939 2.439 1.295 3.366 4.322 2.07 6.761-1.295 2.439-4.322 3.366-6.761 2.07-31.071-16.503-69.25-18.049-107.503-4.355-35.907 12.854-68.971 38.165-90.714 69.442-20.905 30.071-34.507 65.188-47.661 99.148-7.606 19.637-15.471 39.942-24.713 59.258-9.464 19.781-23.284 44.183-46.338 57.406-17.131 9.826-38.375 12.323-59.819 7.031-20.295-5.008-38.94-16.339-52.5-31.906-8.579-9.848-15.681-21.404-21.108-34.349-24.259-57.859-87.239-87.009-143.379-66.362-8.433 3.101-16.432 6.942-23.775 11.416-55.493 33.809-76.314 103.36-92.884 171.7-.552 2.287-2.599 3.822-4.853 3.822z" fill="#008080"/><path d="m498.34 756.429-29.103 632.802-.161 35.339h283.746c17.167 0 31.095-14.494 31.095-32.346v-632.163z" fill="url(#l)" opacity=".64"/><path d="m812.998 707.844v649.986c0 17.852-13.928 32.346-31.095 32.346h-520.107c-17.167 0-31.095-14.494-31.095-32.346v-692.68c0-17.883 13.928-32.346 31.095-32.346h479.081l.333.332v.03c24.161 25.144 47.626 49.533 71.788 74.678z" fill="#ff6260"/><path d="m812.998 707.844v649.986c0 17.852-13.928 32.346-31.095 32.346h-520.107c-17.167 0-31.095-14.494-31.095-32.346v-692.68c0-17.883 13.928-32.346 31.095-32.346h479.081l.333.332v.03l18.56 60.548z" fill="url(#m)"/><path d="m812.995 707.838h-36.06c-19.905 0-36.06-16.81-36.06-37.523v-37.523l.324.337z" fill="#ff6260"/><g fill="#fff4db"><path d="m712.085 826.319h-380.522c-2.761 0-5-2.239-5-5s2.239-5 5-5h380.523c2.761 0 5 2.239 5 5s-2.239 5-5.001 5z"/><path d="m712.085 1090.22h-380.522c-2.761 0-5-2.239-5-5s2.239-5 5-5h380.523c2.761 0 5 2.239 5 5s-2.239 5-5.001 5z"/><path d="m651.53 1002.253h-319.967c-2.761 0-5-2.239-5-5s2.239-5 5-5h319.967c2.761 0 5 2.239 5 5s-2.238 5-5 5z"/><path d="m712.085 914.286h-380.522c-2.761 0-5-2.239-5-5s2.239-5 5-5h380.523c2.761 0 5 2.239 5 5s-2.239 5-5.001 5z"/></g><path d="m1071.931 1510.336h57.701v39.343h-57.701z" fill="url(#n)" opacity=".6"/><path d="m1816.026 1262.218v798.369c0 19.411-15.763 35.164-35.186 35.164h-539.158l-71.551-40.275c-19.459 0-34.546-799.506-15.087-799.506l86.638-28.916h539.158c19.423-0 35.186 15.753 35.186 35.164z" fill="url(#p)"/><path d="m1241.682 1227.054v868.697h-93.982c-19.459 0-35.186-15.754-35.186-35.164v-798.369c0-19.411 15.727-35.164 35.186-35.164z" fill="url(#q)"/><path d="m1721.006 1676.574h-400.136c-5.523 0-10-4.477-10-10v-242.797c0-5.523 4.477-10 10-10h400.136c5.523 0 10 4.477 10 10v242.797c0 5.523-4.477 10-10 10z" fill="url(#r)"/><path d="m1613.627 1947.561-337.662-354.461c-9.085-9.539-21.536-16.657-34.283-19.714-.485.036-18.105-2.879-18.105-2.879-8.95-1.49-16.833 6.009-15.783 15.017l1.668 14.303c1.011 23.115 32.221 53.978 32.221 53.978l176.62 185.101c-1.777-.216-3.584.631-4.512 2.289-1.221 2.187-.438 4.951 1.747 6.175.201.114 20.248 11.514 28.911 31.018 13.075 29.431 42.448 95.441 113.774 107.403l7.238 7.598c12.661 13.292 33.71 13.81 47.01 1.155 13.3-12.657 13.817-33.691 1.156-46.983zm-160.571-72.173 93.831 98.499c-56.942-16.499-82.095-72.092-93.831-98.499z" fill="url(#s)"/><path d="m1221.358 1566.601 6.254-5.95c.592-.563.615-1.508.052-2.099l-28.548-29.969c-2.199-2.308-5.888-2.399-8.198-.202-2.313 2.2-2.404 5.892-.202 8.203l28.545 29.965c.562.591 1.506.615 2.097.052z" fill="#013b3f"/><path d="m1578.04 1977.003c-.038 0-.076-.001-.114-.002-34.649-1.291-64.404-15.019-88.439-40.803-19.449-20.865-31.912-45.83-41.538-67.5-8.909-20.057-29.361-31.62-29.566-31.734-1.448-.806-1.968-2.633-1.161-4.081.806-1.448 2.633-1.968 4.081-1.162.911.507 22.416 12.672 32.13 34.541 9.424 21.215 21.598 45.628 40.443 65.844 22.914 24.581 51.268 37.669 84.274 38.899 1.656.062 2.948 1.454 2.886 3.11-.061 1.618-1.391 2.888-2.996 2.888z" fill="#004751"/><path d="m1615.244 1973.904c13.301-12.654 13.818-33.688 1.156-46.98l-337.661-354.461c-10.194-10.701-23.592-17.8-38.175-20.228l-14.213-2.366c-8.95-1.49-16.833 6.01-15.783 15.017l1.666 14.303c1.709 14.676 8.146 28.398 18.34 39.099l337.661 354.461c12.661 13.292 33.708 13.809 47.009 1.155z" fill="url(#t)"/><path d="m607.026 1266.403-10.051 30.422c-.288.871-1.102 1.459-2.019 1.459h-9.658c-1.457 0-2.482-1.43-2.013-2.809l34.592-101.747c.293-.862 1.103-1.441 2.013-1.441h13.479c.91 0 1.719.578 2.012 1.439l34.742 101.747c.471 1.379-.555 2.811-2.012 2.811h-10.139c-.911 0-1.721-.58-2.013-1.442l-10.351-30.457c-.293-.862-1.103-1.442-2.013-1.442h-34.549c-.918.001-1.732.589-2.02 1.46zm32.35-12.154c1.44 0 2.463-1.399 2.026-2.77l-15.01-47.083h-.316c-1.332 5.328-11.696 37.392-14.837 47.082-.445 1.373.582 2.771 2.026 2.771z" fill="#fff4db"/><path d="m717.185 1214.813v25.003c0 .897.728 1.625 1.626 1.625h23.936c.898 0 1.625.727 1.625 1.625v3.964c0 .897-.728 1.625-1.625 1.625h-23.936c-.898 0-1.626.727-1.626 1.625v25.244c0 .897-.728 1.625-1.625 1.625h-4.448c-.898 0-1.625-.727-1.625-1.625v-25.244c0-.897-.728-1.625-1.626-1.625h-23.936c-.898 0-1.625-.727-1.625-1.625v-3.964c0-.897.728-1.625 1.625-1.625h23.936c.898 0 1.626-.727 1.626-1.625v-25.003c0-.897.728-1.625 1.625-1.625h4.448c.897 0 1.625.728 1.625 1.625z" fill="#fff4db"/></svg>
